<svg xmlns="http://www.w3.org/2000/svg" width="29.999" height="29.999" viewBox="0 0 29.999 29.999">
  <g id="btc" transform="translate(0 0)">
    <path id="Shape" d="M29.55,18.63A15,15,0,1,1,18.627.45,14.994,14.994,0,0,1,29.55,18.63Z" transform="translate(0 0)" fill="#fff"/>
    <path id="Shape-2" d="M5.592,18.587l.672-2.693c-.427-.106-.861-.219-1.311-.34l-.675,2.705-1.644-.41.681-2.736L0,14.277.817,12.39s1.213.324,1.2.3a.6.6,0,0,0,.754-.39L4.615,4.893a.877.877,0,0,0-.768-.958c.026-.017-1.2-.3-1.2-.3L3.091,1.88,6.41,2.7,7.083,0,8.728.41,8.068,3.06c.442.1.887.2,1.318.31L10.044.738l1.646.41-.675,2.7c2.078.716,3.6,1.788,3.3,3.785h0c-.216,1.462-2.1,2.417-2.1,2.417S14.44,12,13.724,14.047c-.887,2.537-3,2.75-5.8,2.219L7.238,19Z" transform="translate(7.3 5.226)" fill="#ffb300"/>
  </g>
</svg>
